<?xml version="1.0" encoding="UTF-8" standalone="no"?>
<!-- Created with Inkscape (http://www.inkscape.org/) -->
<svg
   xmlns:dc="http://purl.org/dc/elements/1.1/"
   xmlns:cc="http://creativecommons.org/ns#"
   xmlns:rdf="http://www.w3.org/1999/02/22-rdf-syntax-ns#"
   xmlns:svg="http://www.w3.org/2000/svg"
   xmlns="http://www.w3.org/2000/svg"
   xmlns:xlink="http://www.w3.org/1999/xlink"
   xmlns:sodipodi="http://sodipodi.sourceforge.net/DTD/sodipodi-0.dtd"
   xmlns:inkscape="http://www.inkscape.org/namespaces/inkscape"
   width="210mm"
   height="297mm"
   id="svg3050"
   sodipodi:version="0.32"
   inkscape:version="0.46"
   sodipodi:docname="twit-miner-logo.svg"
   inkscape:output_extension="org.inkscape.output.svg.inkscape"
   inkscape:export-filename="/home/nax/Studium/Grundlagen Methodischen Arbeitens/paper/twit-miner-logo.png"
   inkscape:export-xdpi="263.04858"
   inkscape:export-ydpi="263.04858">
  <defs
     id="defs3052">
    <radialGradient
       inkscape:collect="always"
       xlink:href="#linearGradient5060"
       id="radialGradient5031"
       gradientUnits="userSpaceOnUse"
       gradientTransform="matrix(-2.774389,0,0,1.969706,112.7623,-872.8854)"
       cx="605.71429"
       cy="486.64789"
       fx="605.71429"
       fy="486.64789"
       r="117.14286" />
    <linearGradient
       inkscape:collect="always"
       id="linearGradient5060">
      <stop
         style="stop-color:black;stop-opacity:1;"
         offset="0"
         id="stop5062" />
      <stop
         style="stop-color:black;stop-opacity:0;"
         offset="1"
         id="stop5064" />
    </linearGradient>
    <radialGradient
       inkscape:collect="always"
       xlink:href="#linearGradient5060"
       id="radialGradient5029"
       gradientUnits="userSpaceOnUse"
       gradientTransform="matrix(2.774389,0,0,1.969706,-1891.633,-872.8854)"
       cx="605.71429"
       cy="486.64789"
       fx="605.71429"
       fy="486.64789"
       r="117.14286" />
    <linearGradient
       id="linearGradient5048">
      <stop
         style="stop-color:black;stop-opacity:0;"
         offset="0"
         id="stop5050" />
      <stop
         id="stop5056"
         offset="0.5"
         style="stop-color:black;stop-opacity:1;" />
      <stop
         style="stop-color:black;stop-opacity:0;"
         offset="1"
         id="stop5052" />
    </linearGradient>
    <linearGradient
       inkscape:collect="always"
       xlink:href="#linearGradient5048"
       id="linearGradient5027"
       gradientUnits="userSpaceOnUse"
       gradientTransform="matrix(2.774389,0,0,1.969706,-1892.179,-872.8854)"
       x1="302.85715"
       y1="366.64789"
       x2="302.85715"
       y2="609.50507" />
    <linearGradient
       id="linearGradient10691"
       inkscape:collect="always">
      <stop
         id="stop10693"
         offset="0"
         style="stop-color:#000000;stop-opacity:1;" />
      <stop
         id="stop10695"
         offset="1"
         style="stop-color:#000000;stop-opacity:0;" />
    </linearGradient>
    <radialGradient
       inkscape:collect="always"
       xlink:href="#linearGradient10691"
       id="radialGradient16665"
       gradientUnits="userSpaceOnUse"
       gradientTransform="scale(1.902215,0.525703)"
       cx="6.7027131"
       cy="73.615714"
       fx="6.7027131"
       fy="73.615714"
       r="7.2284161" />
    <linearGradient
       inkscape:collect="always"
       id="linearGradient2573">
      <stop
         style="stop-color:#ffffff;stop-opacity:1;"
         offset="0"
         id="stop2575" />
      <stop
         style="stop-color:#ffffff;stop-opacity:0;"
         offset="1"
         id="stop2577" />
    </linearGradient>
    <linearGradient
       inkscape:collect="always"
       xlink:href="#linearGradient2573"
       id="linearGradient3746"
       gradientUnits="userSpaceOnUse"
       x1="17.397203"
       y1="33.357376"
       x2="22.17771"
       y2="31.026741" />
    <linearGradient
       id="linearGradient9749">
      <stop
         style="stop-color:#ffffff;stop-opacity:1;"
         offset="0"
         id="stop9751" />
      <stop
         style="stop-color:#ededed;stop-opacity:1.0000000;"
         offset="1.0000000"
         id="stop9753" />
    </linearGradient>
    <linearGradient
       inkscape:collect="always"
       xlink:href="#linearGradient9749"
       id="linearGradient3744"
       gradientUnits="userSpaceOnUse"
       gradientTransform="matrix(1.370928,0,0,-1.46456,2.525057,33.71269)"
       x1="11.841544"
       y1="4.2507305"
       x2="40.024059"
       y2="7.4121075" />
    <linearGradient
       inkscape:collect="always"
       xlink:href="#linearGradient15107"
       id="linearGradient3742"
       gradientUnits="userSpaceOnUse"
       gradientTransform="matrix(1.570607,0,0,-1.231511,2.973436,33.33485)"
       x1="10.027"
       y1="20.219761"
       x2="17.178024"
       y2="-7.5274644" />
    <linearGradient
       inkscape:collect="always"
       xlink:href="#linearGradient15107"
       id="linearGradient3740"
       gradientUnits="userSpaceOnUse"
       gradientTransform="matrix(1.296015,0,0,-1.43692,3.746576,33.20516)"
       x1="11.74217"
       y1="11.48487"
       x2="13.846983"
       y2="11.981981" />
    <linearGradient
       id="linearGradient2274">
      <stop
         style="stop-color:#000000;stop-opacity:0.12871288;"
         offset="0.0000000"
         id="stop2276" />
      <stop
         style="stop-color:#000000;stop-opacity:0.0000000;"
         offset="1.0000000"
         id="stop2278" />
    </linearGradient>
    <radialGradient
       inkscape:collect="always"
       xlink:href="#linearGradient2274"
       id="radialGradient3738"
       gradientUnits="userSpaceOnUse"
       gradientTransform="matrix(0.629929,0.459373,-0.147675,0.248512,16.51724,9.053737)"
       cx="27.741131"
       cy="38.711506"
       fx="27.741131"
       fy="38.711506"
       r="17.977943" />
    <linearGradient
       id="linearGradient2624">
      <stop
         id="stop2626"
         offset="0"
         style="stop-color:#dfe0df;stop-opacity:1;" />
      <stop
         style="stop-color:#a6b0a6;stop-opacity:1;"
         offset="0.23809524"
         id="stop2630" />
      <stop
         id="stop2628"
         offset="1.0000000"
         style="stop-color:#b5beb5;stop-opacity:1.0000000;" />
    </linearGradient>
    <linearGradient
       inkscape:collect="always"
       xlink:href="#linearGradient2624"
       id="linearGradient3736"
       gradientUnits="userSpaceOnUse"
       gradientTransform="matrix(2.454781,0,0,0.762004,2.88175,0.337386)"
       x1="9.1643066"
       y1="38.070892"
       x2="9.8855038"
       y2="52.090679" />
    <linearGradient
       id="linearGradient15107">
      <stop
         style="stop-color:#ffffff;stop-opacity:1.0000000;"
         offset="0.0000000"
         id="stop15109" />
      <stop
         style="stop-color:#e2e2e2;stop-opacity:1.0000000;"
         offset="1.0000000"
         id="stop15111" />
    </linearGradient>
    <linearGradient
       inkscape:collect="always"
       xlink:href="#linearGradient15107"
       id="linearGradient3734"
       gradientUnits="userSpaceOnUse"
       gradientTransform="matrix(1.343475,0,0,1.505846,2.879511,-2.266018)"
       x1="11.572842"
       y1="4.7461626"
       x2="18.475286"
       y2="26.022910" />
    <linearGradient
       id="linearGradient2187">
      <stop
         style="stop-color:#ffffff;stop-opacity:1;"
         offset="0"
         id="stop2189" />
      <stop
         style="stop-color:#ffffff;stop-opacity:0;"
         offset="1"
         id="stop2191" />
    </linearGradient>
    <linearGradient
       id="linearGradient2484">
      <stop
         style="stop-color:#9f620b;stop-opacity:1;"
         offset="0"
         id="stop2486" />
      <stop
         style="stop-color:#ffc879;stop-opacity:0;"
         offset="1"
         id="stop2488" />
    </linearGradient>
    <linearGradient
       id="linearGradient2308">
      <stop
         id="stop2310"
         offset="0"
         style="stop-color:#fd9d14;stop-opacity:1;" />
      <stop
         id="stop2312"
         offset="1"
         style="stop-color:#ffc879;stop-opacity:0;" />
    </linearGradient>
    <linearGradient
       id="linearGradient4467">
      <stop
         style="stop-color:#ffffff;stop-opacity:1;"
         offset="0"
         id="stop4469" />
      <stop
         style="stop-color:#ffffff;stop-opacity:0.24761905;"
         offset="1.0000000"
         id="stop4471" />
    </linearGradient>
    <radialGradient
       inkscape:collect="always"
       xlink:href="#linearGradient4467"
       id="radialGradient4473"
       cx="15.414371"
       cy="13.078408"
       fx="15.414371"
       fy="13.078408"
       r="6.6562500"
       gradientTransform="matrix(2.592963,0,0,2.252104,-25.05975,-18.941)"
       gradientUnits="userSpaceOnUse" />
    <linearGradient
       id="linearGradient4454">
      <stop
         style="stop-color:#729fcf;stop-opacity:0.20784314;"
         offset="0.0000000"
         id="stop4456" />
      <stop
         style="stop-color:#729fcf;stop-opacity:0.67619050;"
         offset="1.0000000"
         id="stop4458" />
    </linearGradient>
    <radialGradient
       inkscape:collect="always"
       xlink:href="#linearGradient4454"
       id="radialGradient4460"
       cx="18.240929"
       cy="21.817987"
       fx="18.240929"
       fy="21.817987"
       r="8.3085051"
       gradientUnits="userSpaceOnUse" />
    <linearGradient
       inkscape:collect="always"
       id="linearGradient4487">
      <stop
         style="stop-color:#ffffff;stop-opacity:1;"
         offset="0"
         id="stop4489" />
      <stop
         style="stop-color:#ffffff;stop-opacity:0;"
         offset="1"
         id="stop4491" />
    </linearGradient>
    <radialGradient
       inkscape:collect="always"
       xlink:href="#linearGradient4487"
       id="radialGradient4493"
       cx="24.130018"
       cy="37.967922"
       fx="24.130018"
       fy="37.967922"
       r="16.528622"
       gradientTransform="matrix(1,0,0,0.237968,0,28.93278)"
       gradientUnits="userSpaceOnUse" />
    <linearGradient
       id="linearGradient2366">
      <stop
         id="stop2368"
         offset="0"
         style="stop-color:#ffffff;stop-opacity:1;" />
      <stop
         style="stop-color:#ffffff;stop-opacity:0.21904762;"
         offset="0.50000000"
         id="stop2374" />
      <stop
         id="stop2370"
         offset="1.0000000"
         style="stop-color:#ffffff;stop-opacity:1.0000000;" />
    </linearGradient>
    <linearGradient
       gradientUnits="userSpaceOnUse"
       y2="25.743469"
       x2="17.500893"
       y1="13.602121"
       x1="18.292673"
       id="linearGradient2372"
       xlink:href="#linearGradient2366"
       inkscape:collect="always" />
    <linearGradient
       id="linearGradient4440">
      <stop
         style="stop-color:#7d7d7d;stop-opacity:1;"
         offset="0"
         id="stop4442" />
      <stop
         id="stop4448"
         offset="0.50000000"
         style="stop-color:#b1b1b1;stop-opacity:1.0000000;" />
      <stop
         style="stop-color:#686868;stop-opacity:1.0000000;"
         offset="1.0000000"
         id="stop4444" />
    </linearGradient>
    <linearGradient
       inkscape:collect="always"
       xlink:href="#linearGradient4440"
       id="linearGradient4446"
       x1="30.656250"
       y1="34.000000"
       x2="33.218750"
       y2="31.062500"
       gradientUnits="userSpaceOnUse"
       gradientTransform="matrix(1.334593,0,0,1.291292,-6.973842,-7.460658)" />
    <linearGradient
       id="linearGradient2846">
      <stop
         id="stop2848"
         offset="0.0000000"
         style="stop-color:#8a8a8a;stop-opacity:1.0000000;" />
      <stop
         id="stop2850"
         offset="1.0000000"
         style="stop-color:#484848;stop-opacity:1.0000000;" />
    </linearGradient>
    <linearGradient
       gradientUnits="userSpaceOnUse"
       y2="30.557772"
       x2="31.335964"
       y1="26.580296"
       x1="27.366341"
       id="linearGradient2852"
       xlink:href="#linearGradient2846"
       inkscape:collect="always" />
    <linearGradient
       inkscape:collect="always"
       id="linearGradient4477">
      <stop
         style="stop-color:#000000;stop-opacity:1;"
         offset="0"
         id="stop4479" />
      <stop
         style="stop-color:#000000;stop-opacity:0;"
         offset="1"
         id="stop4481" />
    </linearGradient>
    <radialGradient
       r="16.528622"
       fy="37.967922"
       fx="24.130018"
       cy="37.967922"
       cx="24.130018"
       gradientTransform="matrix(1,0,0,0.237968,0,28.93278)"
       gradientUnits="userSpaceOnUse"
       id="radialGradient2842"
       xlink:href="#linearGradient4477"
       inkscape:collect="always" />
    <inkscape:perspective
       sodipodi:type="inkscape:persp3d"
       inkscape:vp_x="0 : 526.18109 : 1"
       inkscape:vp_y="0 : 1000 : 0"
       inkscape:vp_z="744.09448 : 526.18109 : 1"
       inkscape:persp3d-origin="372.04724 : 350.78739 : 1"
       id="perspective3058" />
  </defs>
  <sodipodi:namedview
     id="base"
     pagecolor="#ffffff"
     bordercolor="#666666"
     borderopacity="1.0"
     inkscape:pageopacity="0.0"
     inkscape:pageshadow="2"
     inkscape:zoom="1.979899"
     inkscape:cx="296.53233"
     inkscape:cy="667.09556"
     inkscape:document-units="px"
     inkscape:current-layer="layer1"
     showgrid="false"
     inkscape:window-width="636"
     inkscape:window-height="780"
     inkscape:window-x="0"
     inkscape:window-y="16" />
  <metadata
     id="metadata3055">
    <rdf:RDF>
      <cc:Work
         rdf:about="">
        <dc:format>image/svg+xml</dc:format>
        <dc:type
           rdf:resource="http://purl.org/dc/dcmitype/StillImage" />
      </cc:Work>
    </rdf:RDF>
  </metadata>
  <g
     inkscape:label="Ebene 1"
     inkscape:groupmode="layer"
     id="layer1">
    <g
       style="display:inline"
       id="g5022"
       transform="matrix(2.312904e-2,0,0,1.485743e-2,336.43221,381.15494)">
      <rect
         y="-150.69685"
         x="-1559.2523"
         height="478.35718"
         width="1339.6335"
         id="rect4173"
         style="opacity:0.40206185;fill:url(#linearGradient5027);fill-opacity:1;fill-rule:nonzero;stroke:none;stroke-width:1;stroke-linecap:round;stroke-linejoin:miter;marker:none;marker-start:none;marker-mid:none;marker-end:none;stroke-miterlimit:4;stroke-dasharray:none;stroke-dashoffset:0;stroke-opacity:1;visibility:visible;display:inline;overflow:visible" />
      <path
         sodipodi:nodetypes="cccc"
         id="path5058"
         d="M -219.61876,-150.68038 C -219.61876,-150.68038 -219.61876,327.65041 -219.61876,327.65041 C -76.744594,328.55086 125.78146,220.48075 125.78138,88.454235 C 125.78138,-43.572302 -33.655436,-150.68036 -219.61876,-150.68038 z"
         style="opacity:0.40206185;fill:url(#radialGradient5029);fill-opacity:1;fill-rule:nonzero;stroke:none;stroke-width:1;stroke-linecap:round;stroke-linejoin:miter;marker:none;marker-start:none;marker-mid:none;marker-end:none;stroke-miterlimit:4;stroke-dasharray:none;stroke-dashoffset:0;stroke-opacity:1;visibility:visible;display:inline;overflow:visible" />
      <path
         style="opacity:0.40206185;fill:url(#radialGradient5031);fill-opacity:1;fill-rule:nonzero;stroke:none;stroke-width:1;stroke-linecap:round;stroke-linejoin:miter;marker:none;marker-start:none;marker-mid:none;marker-end:none;stroke-miterlimit:4;stroke-dasharray:none;stroke-dashoffset:0;stroke-opacity:1;visibility:visible;display:inline;overflow:visible"
         d="M -1559.2523,-150.68038 C -1559.2523,-150.68038 -1559.2523,327.65041 -1559.2523,327.65041 C -1702.1265,328.55086 -1904.6525,220.48075 -1904.6525,88.454235 C -1904.6525,-43.572302 -1745.2157,-150.68036 -1559.2523,-150.68038 z"
         id="path5018"
         sodipodi:nodetypes="cccc" />
    </g>
    <path
       sodipodi:type="arc"
       style="opacity:0.3;fill:url(#radialGradient16665);fill-opacity:1;fill-rule:nonzero;stroke:none;stroke-width:0.80000001;stroke-linecap:butt;stroke-linejoin:miter;marker:none;marker-start:none;marker-mid:none;marker-end:none;stroke-miterlimit:4;stroke-dashoffset:0;stroke-opacity:1;visibility:visible;display:inline;overflow:visible"
       id="path4202"
       sodipodi:cx="12.75"
       sodipodi:cy="38.700001"
       sodipodi:rx="13.75"
       sodipodi:ry="3.8"
       d="M 26.5,38.700001 A 13.75,3.8 0 1 1 -1,38.700001 A 13.75,3.8 0 1 1 26.5,38.700001 z"
       transform="matrix(1.178791,0,0,1.526064,305.42249,329.14162)"
       inkscape:r_cx="true"
       inkscape:r_cy="true" />
    <g
       id="g4204"
       transform="matrix(1.004727,0,0,1.001609,290.90251,341.70389)"
       inkscape:r_cx="true"
       inkscape:r_cy="true">
      <path
         id="path4206"
         d="M 6.34375,15.454879 L 6.34375,41.44216 L 43.3125,41.44216 L 43.25,15.554447 C 43.249987,15.548732 43.250374,15.527358 43.25,15.521258 C 43.249269,15.514776 43.251086,15.494928 43.25,15.488068 C 43.248562,15.480833 43.220538,15.462487 43.21875,15.454879 L 6.34375,15.454879 z"
         style="fill:url(#linearGradient3734);fill-opacity:1;fill-rule:evenodd;stroke:#888a85;stroke-width:0.99684346;stroke-linecap:butt;stroke-linejoin:round;stroke-miterlimit:4;stroke-dasharray:none;stroke-opacity:1"
         inkscape:r_cx="true"
         inkscape:r_cy="true" />
      <path
         sodipodi:nodetypes="ccccccc"
         id="path4208"
         d="M 20.490674,29.058712 L 7.09471,40.0307 L 21.003552,30.426394 L 30.02171,30.426394 L 42.440757,39.908587 L 30.577332,29.058712 L 20.490674,29.058712 z"
         style="fill:url(#linearGradient3736);fill-opacity:1;fill-rule:evenodd;stroke:none;stroke-width:1;stroke-linecap:butt;stroke-linejoin:miter;stroke-miterlimit:4;stroke-opacity:1"
         inkscape:r_cx="true"
         inkscape:r_cy="true" />
      <path
         id="path4210"
         d="M 7.4471445,16.725622 C 7.440469,16.738968 7.4525223,16.745279 7.4471445,16.757236 C 7.4447837,16.762865 7.4180173,16.783579 7.415987,16.788852 C 7.4142896,16.793766 7.417349,16.815911 7.415987,16.820466 C 7.4149629,16.824659 7.4166708,16.848255 7.415987,16.852082 L 7.4471445,40.341905 L 42.28123,40.341905 L 42.218915,16.97854 C 42.21823,16.974827 42.219935,16.951011 42.218915,16.946925 C 42.2043,16.898814 42.177209,16.814677 42.125442,16.725622 L 7.4471445,16.725622 z"
         style="fill:none;fill-opacity:0.75;fill-rule:evenodd;stroke:#ffffff;stroke-width:0.99684328;stroke-linecap:butt;stroke-linejoin:miter;stroke-miterlimit:4;stroke-dasharray:none;stroke-opacity:1"
         inkscape:r_cx="true"
         inkscape:r_cy="true" />
      <path
         id="path4212"
         d="M 23.329298,32.996721 C 20.937189,32.550375 7.9003872,18.771125 6.5966059,16.372022 C 6.5816495,16.343448 6.5559705,16.288608 6.5446896,16.2636 L 41.057803,16.2636 C 40.780724,18.766404 33.533576,32.769346 31.496524,32.996721 C 31.488351,32.997189 31.475247,32.996721 31.467251,32.996721 L 23.446392,32.996721 C 23.412766,32.996721 23.368838,33.004099 23.329298,32.996721 z"
         style="fill:url(#radialGradient3738);fill-opacity:1;fill-rule:evenodd;stroke:none;stroke-width:0.85660434;stroke-linecap:butt;stroke-linejoin:round;stroke-miterlimit:4;stroke-opacity:1"
         inkscape:r_cx="true"
         inkscape:r_cy="true" />
      <path
         id="path4214"
         d="M 20.77475,31.085394 C 18.407309,30.694257 7.945269,18.619435 7.1185841,16.517089 C 7.109327,16.49205 7.094677,16.443993 7.088438,16.422079 L 42.630645,16.422079 C 41.807029,18.615299 31.332195,30.886144 29.185502,31.085394 C 29.176984,31.085803 29.16359,31.085394 29.155355,31.085394 L 20.895334,31.085394 C 20.860706,31.085394 20.813881,31.091858 20.77475,31.085394 z"
         style="fill:url(#linearGradient3740);fill-opacity:1;fill-rule:evenodd;stroke:#989898;stroke-width:0.85390013;stroke-linecap:butt;stroke-linejoin:round;stroke-miterlimit:4;stroke-opacity:1"
         inkscape:r_cx="true"
         inkscape:r_cy="true" />
      <path
         id="path4216"
         d="M 20.625174,30.490479 C 18.519211,29.999928 7.7224803,17.987711 7.0314243,16.466377 C 7.0288882,16.460379 7.0336023,16.439689 7.0314243,16.434063 C 7.0259731,16.418307 7.002328,16.381764 7.0001743,16.369436 C 7.000203,16.366104 6.9997682,16.34006 7.0001743,16.337122 C 7.0013435,16.334982 7.0298695,16.338859 7.0314243,16.337122 L 7.1251743,16.240181 L 42.593924,16.240181 C 42.591209,16.264507 42.57124,16.307054 42.562674,16.337122 C 42.555173,16.360727 42.542103,16.407355 42.531424,16.434063 C 41.609326,18.615 31.023436,30.200512 29.187674,30.490479 C 29.172746,30.492123 29.138826,30.490479 29.125174,30.490479 L 20.750174,30.490479 C 20.719887,30.488811 20.66042,30.498689 20.625174,30.490479 z"
         style="fill:url(#linearGradient3742);fill-opacity:1;fill-rule:evenodd;stroke:none;stroke-width:0.25pt;stroke-linecap:butt;stroke-linejoin:miter;stroke-opacity:1"
         inkscape:r_cx="true"
         inkscape:r_cy="true" />
      <path
         id="path4218"
         d="M 20.875174,30.051141 C 18.427215,29.501671 8.7040003,18.433898 7.5314243,16.451725 L 42.125174,16.451725 C 40.634986,18.784896 31.078502,29.863516 28.968924,30.051141 C 28.960181,30.051543 28.946142,30.051141 28.937674,30.051141 L 21.031424,30.051141 C 21.00503,30.051141 20.966542,30.054692 20.937674,30.051141 C 20.917888,30.047995 20.896025,30.055821 20.875174,30.051141 z"
         style="fill:none;fill-opacity:0.75;fill-rule:evenodd;stroke:url(#linearGradient3744);stroke-width:0.85389996;stroke-linecap:butt;stroke-linejoin:miter;stroke-miterlimit:4;stroke-opacity:1"
         inkscape:r_cx="true"
         inkscape:r_cy="true" />
      <path
         sodipodi:nodetypes="cccccc"
         id="path4220"
         d="M 20.959511,30.447113 L 9.018012,38.717969 L 11.237445,38.724076 L 21.23557,31.855136 L 30.057478,30.432298 L 20.959511,30.447113 z"
         style="fill:url(#linearGradient3746);fill-opacity:1;fill-rule:evenodd;stroke:none;stroke-width:1;stroke-linecap:butt;stroke-linejoin:miter;stroke-miterlimit:4;stroke-opacity:1"
         inkscape:r_cx="true"
         inkscape:r_cy="true" />
    </g>
    <g
       id="g1772"
       transform="translate(301.1675,349.99034)">
      <path
         sodipodi:type="arc"
         style="opacity:0.17112301;fill:url(#radialGradient2842);fill-opacity:1;fill-rule:evenodd;stroke:none;stroke-width:1;stroke-linecap:round;stroke-linejoin:miter;marker:none;marker-start:none;marker-mid:none;marker-end:none;stroke-miterlimit:10;stroke-dasharray:none;stroke-dashoffset:0;stroke-opacity:1;visibility:visible;display:inline;overflow:visible"
         id="path4475"
         sodipodi:cx="24.130018"
         sodipodi:cy="37.967922"
         sodipodi:rx="16.528622"
         sodipodi:ry="3.9332814"
         d="M 40.65864,37.967922 A 16.528622,3.9332814 0 1 1 7.6013966,37.967922 A 16.528622,3.9332814 0 1 1 40.65864,37.967922 z"
         transform="matrix(1.446431,0,0,1.51999,-10.97453,-17.75168)" />
      <path
         sodipodi:nodetypes="csscccscccscczzzz"
         id="path2844"
         d="M 18.627569,3.1435548 C 10.488439,3.1435548 3.8827682,9.7492259 3.8827682,17.888356 C 3.8827682,26.027486 10.488439,32.633158 18.627569,32.633158 C 22.107124,32.633158 25.17857,31.248765 27.701292,29.230511 C 27.495915,30.237392 27.623257,31.265879 28.457436,31.990436 L 39.42152,41.517846 C 40.654936,42.589175 42.508982,42.448806 43.58031,41.215389 C 44.651638,39.981971 44.511269,38.127927 43.277853,37.056599 L 32.313769,27.529188 C 31.642242,26.945909 30.820891,26.773219 30.007531,26.886466 C 31.994231,24.374044 33.37237,21.337663 33.37237,17.888356 C 33.37237,9.7492259 26.766699,3.1435548 18.627569,3.1435548 z M 18.551954,4.3697381 C 26.191413,4.3697381 31.843729,9.1586886 31.843729,17.661513 C 31.843729,26.336626 26.027039,30.953288 18.551954,30.953288 C 11.249005,30.953288 5.2601806,25.475196 5.2601806,17.661513 C 5.2601806,9.6774061 11.084819,4.369738 18.551954,4.3697381 z"
         style="opacity:1;fill:#dcdcdc;fill-opacity:1;fill-rule:evenodd;stroke:url(#linearGradient2852);stroke-width:2.00000095;stroke-linecap:round;stroke-linejoin:miter;marker:none;marker-start:none;marker-mid:none;marker-end:none;stroke-miterlimit:10;stroke-dasharray:none;stroke-dashoffset:0;stroke-opacity:1;visibility:visible;display:inline;overflow:visible" />
      <path
         style="opacity:1;fill:#dcdcdc;fill-opacity:1;fill-rule:evenodd;stroke:none;stroke-width:1.00000036;stroke-linecap:round;stroke-linejoin:miter;marker:none;marker-start:none;marker-mid:none;marker-end:none;stroke-miterlimit:10;stroke-dasharray:none;stroke-dashoffset:0;stroke-opacity:1;visibility:visible;display:inline;overflow:visible"
         d="M 18.602905,3.0803551 C 10.437465,3.0803551 3.8104408,9.7073791 3.8104408,17.872819 C 3.8104408,26.038259 10.437465,32.665283 18.602905,32.665283 C 22.093708,32.665283 25.175082,31.276416 27.70596,29.251638 C 27.499919,30.261774 27.627672,31.293585 28.464547,32.020484 L 39.464073,41.578691 C 40.701476,42.653483 42.561515,42.512661 43.636306,41.275256 C 44.711097,40.037852 44.570274,38.177814 43.332871,37.103023 L 32.333346,27.544815 C 31.659648,26.959651 30.835642,26.786402 30.019653,26.900016 C 32.012775,24.379472 33.395369,21.333276 33.395369,17.872819 C 33.395369,9.7073791 26.768345,3.0803551 18.602905,3.0803551 z M 18.527046,6.2664243 C 24.808154,6.2664245 29.905864,11.364135 29.905864,17.645243 C 29.905864,23.926351 24.808154,29.024061 18.527046,29.024061 C 12.245938,29.024061 7.1482276,23.926351 7.1482276,17.645243 C 7.1482278,11.364135 12.245938,6.2664243 18.527046,6.2664243 z"
         id="path4430" />
      <path
         style="opacity:1;fill:url(#linearGradient4446);fill-opacity:1;fill-rule:evenodd;stroke:none;stroke-width:1;stroke-linecap:round;stroke-linejoin:miter;marker:none;marker-start:none;marker-mid:none;marker-end:none;stroke-miterlimit:10;stroke-dasharray:none;stroke-dashoffset:0;stroke-opacity:1;visibility:visible;display:inline;overflow:visible"
         d="M 39.507004,41.57769 C 39.028332,39.304503 40.904334,36.766268 43.091057,36.789315 C 43.091057,36.789315 32.33069,27.531204 32.33069,27.531204 C 29.385899,27.474498 28.061188,29.80382 28.553876,32.131126 L 39.507004,41.57769 z"
         id="path4438"
         sodipodi:nodetypes="ccccc" />
      <path
         sodipodi:type="arc"
         style="opacity:1;fill:none;fill-opacity:1;fill-rule:evenodd;stroke:url(#linearGradient2372);stroke-width:0.8027336;stroke-linecap:round;stroke-linejoin:miter;marker:none;marker-start:none;marker-mid:none;marker-end:none;stroke-miterlimit:10;stroke-dasharray:none;stroke-dashoffset:0;stroke-opacity:1;visibility:visible;display:inline;overflow:visible"
         id="path4450"
         sodipodi:cx="17.500893"
         sodipodi:cy="18.920233"
         sodipodi:rx="11.048544"
         sodipodi:ry="11.048544"
         d="M 28.549437,18.920233 A 11.048544,11.048544 0 1 1 6.4523487,18.920233 A 11.048544,11.048544 0 1 1 28.549437,18.920233 z"
         transform="matrix(1.245743,0,0,1.245743,-3.425346,-6.177033)" />
      <path
         transform="matrix(0.497764,0,0,0.609621,8.973526,15.61929)"
         d="M 40.65864,37.967922 A 16.528622,3.9332814 0 1 1 7.6013966,37.967922 A 16.528622,3.9332814 0 1 1 40.65864,37.967922 z"
         sodipodi:ry="3.9332814"
         sodipodi:rx="16.528622"
         sodipodi:cy="37.967922"
         sodipodi:cx="24.130018"
         id="path4485"
         style="opacity:1;fill:url(#radialGradient4493);fill-opacity:1;fill-rule:evenodd;stroke:none;stroke-width:1;stroke-linecap:round;stroke-linejoin:miter;marker:none;marker-start:none;marker-mid:none;marker-end:none;stroke-miterlimit:10;stroke-dasharray:none;stroke-dashoffset:0;stroke-opacity:1;visibility:visible;display:inline;overflow:visible"
         sodipodi:type="arc" />
      <rect
         style="opacity:0.43315507;fill:none;fill-opacity:1;fill-rule:evenodd;stroke:#ffffff;stroke-width:1.00003111;stroke-linecap:round;stroke-linejoin:miter;marker:none;marker-start:none;marker-mid:none;marker-end:none;stroke-miterlimit:10;stroke-dasharray:none;stroke-dashoffset:0;stroke-opacity:1;visibility:visible;display:inline;overflow:visible"
         id="rect4495"
         width="19.048439"
         height="4.4404783"
         x="40.373337"
         y="0.14086054"
         rx="2.1366608"
         ry="1.8879365"
         transform="matrix(0.752986,0.658037,-0.648902,0.760872,0,0)" />
      <path
         sodipodi:type="arc"
         style="fill:url(#radialGradient4460);fill-opacity:1;fill-rule:evenodd;stroke:#3063a3;stroke-width:0.71499395;stroke-linecap:round;stroke-linejoin:miter;marker:none;marker-start:none;marker-mid:none;marker-end:none;stroke-miterlimit:10;stroke-dashoffset:0;stroke-opacity:1;visibility:visible"
         id="path4452"
         sodipodi:cx="17.589281"
         sodipodi:cy="18.478292"
         sodipodi:rx="8.3085051"
         sodipodi:ry="8.3085051"
         d="M 25.897786,18.478292 A 8.3085051,8.3085051 0 1 1 9.280776,18.478292 A 8.3085051,8.3085051 0 1 1 25.897786,18.478292 z"
         transform="matrix(1.398614,0,0,1.398614,-6.224338,-8.298958)" />
      <path
         style="opacity:0.83422457;fill:url(#radialGradient4473);fill-opacity:1;fill-rule:evenodd;stroke:none;stroke-width:1;stroke-linecap:round;stroke-linejoin:miter;marker:none;marker-start:none;marker-mid:none;marker-end:none;stroke-miterlimit:10;stroke-dasharray:none;stroke-dashoffset:0;stroke-opacity:1;visibility:visible;display:inline;overflow:visible"
         d="M 18.156915,7.3966938 C 12.949325,7.3966938 8.7323681,11.613651 8.7323681,16.821241 C 8.7323681,18.325216 9.1526753,19.709014 9.77954,20.971144 C 11.03192,21.432757 12.362297,21.746827 13.774307,21.746827 C 19.945262,21.746827 24.873589,16.88519 25.254413,10.809698 C 23.523449,8.7641668 21.044374,7.3966938 18.156915,7.3966938 z"
         id="path4462" />
    </g>
  </g>
</svg>
